<svg id="Layer_1" data-name="Layer 1" xmlns="http://www.w3.org/2000/svg" xmlns:xlink="http://www.w3.org/1999/xlink" viewBox="0 0 800.06 294.01"><defs><style>.cls-1{fill:#fff;}.cls-2{fill:url(#linear-gradient);}.cls-3{fill:url(#linear-gradient-2);}.cls-4{fill:url(#linear-gradient-3);}.cls-5{fill:url(#linear-gradient-4);}.cls-6{fill:url(#linear-gradient-5);}.cls-7{fill:url(#linear-gradient-6);}.cls-8{fill:url(#linear-gradient-7);}.cls-9{fill:url(#linear-gradient-8);}.cls-10{font-size:24.37px;fill:#231f20;font-family:Montserrat-Medium, Montserrat;font-weight:500;}.cls-11{font-family:Montserrat-SemiBold, Montserrat;font-weight:600;}.cls-12{font-family:Montserrat-ExtraBold, Montserrat;font-weight:800;}</style><linearGradient id="linear-gradient" x1="2456.84" y1="364.68" x2="3142.47" y2="704.75" gradientUnits="userSpaceOnUse"><stop offset="0" stop-color="#3777bc"/><stop offset="1" stop-color="#60c3ad"/></linearGradient><linearGradient id="linear-gradient-2" x1="2499.31" y1="279.05" x2="3184.95" y2="619.12" xlink:href="#linear-gradient"/><linearGradient id="linear-gradient-3" x1="-173.4" y1="-144.54" x2="512.23" y2="195.53" xlink:href="#linear-gradient"/><linearGradient id="linear-gradient-4" x1="-157.5" y1="-176.61" x2="528.14" y2="163.47" xlink:href="#linear-gradient"/><linearGradient id="linear-gradient-5" x1="2542.19" y1="192.59" x2="3227.83" y2="532.67" xlink:href="#linear-gradient"/><linearGradient id="linear-gradient-6" x1="2555.75" y1="165.25" x2="3241.39" y2="505.33" xlink:href="#linear-gradient"/><linearGradient id="linear-gradient-7" x1="2572.31" y1="131.88" x2="3257.94" y2="471.95" xlink:href="#linear-gradient"/><linearGradient id="linear-gradient-8" x1="-100.82" y1="-290.88" x2="584.82" y2="49.19" xlink:href="#linear-gradient"/></defs><title>logo</title><path class="cls-1" d="M2915.62,499.94c0,5.77.23,11.58-.2,17.34-.09,1.08-2.74,2.48-4.39,2.83-7.38,1.56-15,2.14-22.21,4.27-11.87,3.52-22.06,9.47-25.6,22.75-.29,1.08-2.09,2.27-3.35,2.5-7.09,1.28-13.26,3.69-14.86,11.68-1.26,6.3,3,13.86,10.07,17.88a37.76,37.76,0,0,0,8.72,3.52c3.15.86,4.35,2.54,4.16,5.74s0,6.53,0,10.3c-8.8,0-17,.08-25.14-.11-1.08,0-2.49-1.25-3.11-2.3-9.83-16.52-34.58-16.32-44.26.07a4.7,4.7,0,0,1-3.23,2.17c-8,.19-16,.1-24.64.1,0-4.3-.32-8.37.2-12.33.16-1.25,2.47-2.44,4-3.26,4.26-2.29,9.07-3.8,12.85-6.68,5-3.87,8.26-9.19,6.33-16.1s-7.52-9.76-13.86-10.29c-5.25-.44-6.58-2.56-6.49-7.38.25-12.78.21-25.57.08-38.36,0-3.42,1-4.8,4.57-4.79q68.91.11,137.82.07A24,24,0,0,1,2915.62,499.94Z" transform="translate(-2686.4 -396)"/><path class="cls-1" d="M2765.7,540.77c-26.31.06-47.75-12.16-50.51-31.43h50.51Z" transform="translate(-2686.4 -396)"/><path class="cls-2" d="M2686.42,542.6c0-18.64,0-37.28,0-55.92-.05-13.19,5.66-22.84,17-29.51,31.44-18.41,62.87-36.84,94.12-55.57,12.74-7.64,24.78-7.37,37.38.2q46.88,28.14,94,55.77c11.6,6.83,16.88,16.87,16.82,30.17q-.21,55.68-.21,111.36c0,12.18-4.66,21.82-15.23,28.11-32.13,19.12-64.34,38.09-96.5,57.17-7.89,4.69-16.2,7.13-25.29,4.61a39.63,39.63,0,0,1-9.49-4.07c-32-18.77-63.79-37.77-95.8-56.44-11.5-6.7-17-16.25-16.89-29.49.18-18.79,0-37.59,0-56.39Zm229.2-42.66a24,24,0,0,0-2.58-.38q-68.91,0-137.82-.07c-3.54,0-4.6,1.37-4.57,4.79.13,12.79.17,25.58-.08,38.36-.09,4.82,1.24,6.94,6.49,7.38,6.34.53,11.92,3.33,13.86,10.29s-1.28,12.23-6.33,16.1c-3.78,2.88-8.59,4.39-12.85,6.68-1.53.82-3.84,2-4,3.26-.52,4-.2,8-.2,12.33,8.59,0,16.62.09,24.64-.1a4.7,4.7,0,0,0,3.23-2.17c9.68-16.39,34.43-16.59,44.26-.07.62,1,2,2.28,3.11,2.3,8.16.19,16.34.11,25.14.11,0-3.77-.16-7,0-10.3s-1-4.88-4.16-5.74a37.76,37.76,0,0,1-8.72-3.52c-7-4-11.33-11.58-10.07-17.88,1.6-8,7.77-10.4,14.86-11.68,1.26-.23,3.06-1.42,3.35-2.5,3.54-13.28,13.73-19.23,25.6-22.75,7.19-2.13,14.83-2.71,22.21-4.27,1.65-.35,4.3-1.75,4.39-2.83C2915.85,511.52,2915.62,505.71,2915.62,499.94ZM2765.7,540.77V509.34h-50.51C2718,528.61,2739.39,540.83,2765.7,540.77Z" transform="translate(-2686.4 -396)"/><path class="cls-3" d="M3028.06,502.21l-31.46,70.58h16.74l6.29-15.12h32.71l6.27,15.12h17.14l-31.56-70.58Zm-3.27,43.06,11.23-27,11.19,27Z" transform="translate(-2686.4 -396)"/><rect class="cls-4" x="395.14" y="106.22" width="16.33" height="70.58"/><polygon class="cls-5" points="458.96 176.8 469.04 176.8 469.04 148.26 504.43 148.26 504.43 139.59 469.04 139.59 469.04 114.99 508.77 114.99 508.77 106.22 458.96 106.22 458.96 176.8"/><path class="cls-6" d="M3264.34,511.64a35.91,35.91,0,0,0-11.89-7.56,42.81,42.81,0,0,0-29.9.05,36,36,0,0,0-11.9,7.61,35.13,35.13,0,0,0-7.86,11.45,37.74,37.74,0,0,0,0,28.63,35.13,35.13,0,0,0,7.86,11.45,35.92,35.92,0,0,0,11.95,7.61,42.68,42.68,0,0,0,29.85,0,35.91,35.91,0,0,0,11.89-7.56,34.12,34.12,0,0,0,7.87-11.45,38.89,38.89,0,0,0,0-28.83A34.12,34.12,0,0,0,3264.34,511.64Zm-1.51,36.65a26.51,26.51,0,0,1-5.74,8.62,25.69,25.69,0,0,1-8.68,5.7,30.34,30.34,0,0,1-21.77,0,26.13,26.13,0,0,1-14.52-14.32,29.13,29.13,0,0,1,0-21.57,26.13,26.13,0,0,1,14.52-14.32,30.34,30.34,0,0,1,21.77,0,25.69,25.69,0,0,1,8.68,5.7,26.51,26.51,0,0,1,5.74,8.62,29.13,29.13,0,0,1,0,21.57Z" transform="translate(-2686.4 -396)"/><path class="cls-7" d="M3330.86,548.39a22.4,22.4,0,0,0,10.08-8.42,23.73,23.73,0,0,0,3.53-13.15,24,24,0,0,0-3.53-13.21,22.38,22.38,0,0,0-10.08-8.47,38.71,38.71,0,0,0-15.83-2.93H3287.5v70.58h10.09V551.32H3315c1.55,0,3-.06,4.48-.19l15.18,21.66h11l-16.75-23.63C3329.59,548.92,3330.24,548.67,3330.86,548.39Zm-16.13-5.64h-17.14V511h17.14q9.67,0,14.67,4.13t5,11.7q0,7.56-5,11.74T3314.73,542.75Z" transform="translate(-2686.4 -396)"/><path class="cls-8" d="M3370.32,518a26.66,26.66,0,0,1,9-5.64,32.1,32.1,0,0,1,22.28,0,27.9,27.9,0,0,1,9.43,6.2l6.25-6.25a30.4,30.4,0,0,0-11.8-8.17,41.83,41.83,0,0,0-15.32-2.72,41.34,41.34,0,0,0-15.13,2.67,35.87,35.87,0,0,0-12,7.56,34.81,34.81,0,0,0-7.91,11.45,38.25,38.25,0,0,0,0,28.83,34.94,34.94,0,0,0,19.76,19,41.06,41.06,0,0,0,15,2.67,46.73,46.73,0,0,0,14.47-2.27,35.68,35.68,0,0,0,12.25-6.7V537.1H3407v23a24.85,24.85,0,0,1-5.69,2.8,33.42,33.42,0,0,1-10.84,1.77,30.25,30.25,0,0,1-11.19-2,26.36,26.36,0,0,1-8.93-5.7,25.64,25.64,0,0,1-5.85-8.67,27.88,27.88,0,0,1-2.06-10.74,28.24,28.24,0,0,1,2.06-10.84A25.24,25.24,0,0,1,3370.32,518Z" transform="translate(-2686.4 -396)"/><polygon class="cls-9" points="756.12 168.03 756.12 145.24 791.51 145.24 791.51 136.67 756.12 136.67 756.12 114.99 795.84 114.99 795.84 106.22 746.03 106.22 746.03 176.8 797.25 176.8 797.25 168.03 756.12 168.03"/><text class="cls-10" transform="translate(310.2 215.57)">SIMPLE AI SOLUTIONS FOR<tspan class="cls-11" x="333.54" y="0"> </tspan><tspan class="cls-12" x="340.27" y="0">EVERYONE!</tspan></text></svg>